<mxfile host="app.diagrams.net" modified="2023-02-24T08:58:56.209Z" agent="5.0 (Windows NT 10.0; Win64; x64) AppleWebKit/537.36 (KHTML, like Gecko) Chrome/109.0.0.0 Safari/537.36" etag="45s3O3UgDGJo6LVjAVXz" version="20.8.20" type="github">
  <diagram name="第 1 页" id="KmEm8IPTACJXXoBmaRpr">
    <mxGraphModel dx="1851" dy="1664" grid="1" gridSize="10" guides="1" tooltips="1" connect="1" arrows="1" fold="1" page="1" pageScale="1" pageWidth="827" pageHeight="1169" math="0" shadow="0">
      <root>
        <mxCell id="0" />
        <mxCell id="1" parent="0" />
        <mxCell id="MKtZNP4OExzvPobhF5sk-25" value="" style="rounded=1;whiteSpace=wrap;html=1;" vertex="1" parent="1">
          <mxGeometry x="570" y="700" width="940" height="250" as="geometry" />
        </mxCell>
        <mxCell id="yX8TjpYVVg8i1SXCX33a-1" value="invocation" style="rounded=1;whiteSpace=wrap;html=1;" parent="1" vertex="1">
          <mxGeometry x="280" y="360" width="120" height="60" as="geometry" />
        </mxCell>
        <mxCell id="yX8TjpYVVg8i1SXCX33a-3" value="&amp;nbsp;mappedStatement" style="rounded=1;whiteSpace=wrap;html=1;" parent="1" vertex="1">
          <mxGeometry x="210" y="490" width="120" height="60" as="geometry" />
        </mxCell>
        <mxCell id="yX8TjpYVVg8i1SXCX33a-4" value="boundSql" style="rounded=1;whiteSpace=wrap;html=1;" parent="1" vertex="1">
          <mxGeometry x="354" y="490" width="120" height="60" as="geometry" />
        </mxCell>
        <mxCell id="yX8TjpYVVg8i1SXCX33a-5" value="metaObject" style="rounded=1;whiteSpace=wrap;html=1;" parent="1" vertex="1">
          <mxGeometry x="280" y="590" width="120" height="60" as="geometry" />
        </mxCell>
        <mxCell id="MKtZNP4OExzvPobhF5sk-1" value="拦截器" style="rounded=1;whiteSpace=wrap;html=1;" vertex="1" parent="1">
          <mxGeometry x="280" y="230" width="120" height="60" as="geometry" />
        </mxCell>
        <mxCell id="MKtZNP4OExzvPobhF5sk-2" value="" style="shape=image;verticalLabelPosition=bottom;labelBackgroundColor=default;verticalAlign=top;aspect=fixed;imageAspect=0;image=https://pdai.tech/images/mybatis/mybatis-y-arch-1.png;" vertex="1" parent="1">
          <mxGeometry x="-540" y="190" width="600.77" height="476" as="geometry" />
        </mxCell>
        <mxCell id="MKtZNP4OExzvPobhF5sk-3" value="sqlSession" style="rounded=1;whiteSpace=wrap;html=1;" vertex="1" parent="1">
          <mxGeometry x="780" y="190" width="120" height="60" as="geometry" />
        </mxCell>
        <mxCell id="MKtZNP4OExzvPobhF5sk-4" value="executor" style="rounded=1;whiteSpace=wrap;html=1;" vertex="1" parent="1">
          <mxGeometry x="620" y="310" width="120" height="60" as="geometry" />
        </mxCell>
        <mxCell id="MKtZNP4OExzvPobhF5sk-5" value="statementHandler" style="rounded=1;whiteSpace=wrap;html=1;" vertex="1" parent="1">
          <mxGeometry x="680" y="420" width="120" height="60" as="geometry" />
        </mxCell>
        <mxCell id="MKtZNP4OExzvPobhF5sk-6" value="parameterHandler" style="rounded=1;whiteSpace=wrap;html=1;" vertex="1" parent="1">
          <mxGeometry x="680" y="360" width="120" height="60" as="geometry" />
        </mxCell>
        <mxCell id="MKtZNP4OExzvPobhF5sk-7" value="resultSetHandler" style="rounded=1;whiteSpace=wrap;html=1;" vertex="1" parent="1">
          <mxGeometry x="680" y="480" width="120" height="60" as="geometry" />
        </mxCell>
        <mxCell id="MKtZNP4OExzvPobhF5sk-8" value="TypeHandler" style="rounded=1;whiteSpace=wrap;html=1;" vertex="1" parent="1">
          <mxGeometry x="590" y="610" width="120" height="60" as="geometry" />
        </mxCell>
        <mxCell id="MKtZNP4OExzvPobhF5sk-9" value="MappedStatement" style="rounded=1;whiteSpace=wrap;html=1;" vertex="1" parent="1">
          <mxGeometry x="800" y="420" width="120" height="60" as="geometry" />
        </mxCell>
        <mxCell id="MKtZNP4OExzvPobhF5sk-10" value="sqlSource" style="rounded=1;whiteSpace=wrap;html=1;" vertex="1" parent="1">
          <mxGeometry x="800" y="360" width="120" height="60" as="geometry" />
        </mxCell>
        <mxCell id="MKtZNP4OExzvPobhF5sk-11" value="boundSql" style="rounded=1;whiteSpace=wrap;html=1;" vertex="1" parent="1">
          <mxGeometry x="920" y="360" width="120" height="60" as="geometry" />
        </mxCell>
        <mxCell id="MKtZNP4OExzvPobhF5sk-12" value="configuration&lt;br&gt;&amp;nbsp;xml配置" style="rounded=1;whiteSpace=wrap;html=1;" vertex="1" parent="1">
          <mxGeometry x="780" y="80" width="120" height="60" as="geometry" />
        </mxCell>
        <mxCell id="MKtZNP4OExzvPobhF5sk-13" value="xmlparser" style="rounded=1;whiteSpace=wrap;html=1;" vertex="1" parent="1">
          <mxGeometry x="640" y="710" width="120" height="60" as="geometry" />
        </mxCell>
        <mxCell id="MKtZNP4OExzvPobhF5sk-14" value="dom" style="rounded=1;whiteSpace=wrap;html=1;" vertex="1" parent="1">
          <mxGeometry x="610" y="840" width="120" height="60" as="geometry" />
        </mxCell>
        <mxCell id="MKtZNP4OExzvPobhF5sk-15" value="reflect" style="rounded=1;whiteSpace=wrap;html=1;" vertex="1" parent="1">
          <mxGeometry x="810" y="710" width="120" height="60" as="geometry" />
        </mxCell>
        <mxCell id="MKtZNP4OExzvPobhF5sk-16" value="construct" style="rounded=1;whiteSpace=wrap;html=1;" vertex="1" parent="1">
          <mxGeometry x="870" y="780" width="120" height="60" as="geometry" />
        </mxCell>
        <mxCell id="MKtZNP4OExzvPobhF5sk-17" value="class" style="rounded=1;whiteSpace=wrap;html=1;" vertex="1" parent="1">
          <mxGeometry x="760" y="780" width="120" height="60" as="geometry" />
        </mxCell>
        <mxCell id="MKtZNP4OExzvPobhF5sk-18" value="parameter/exception/modifer/signature/annotation....." style="rounded=1;whiteSpace=wrap;html=1;" vertex="1" parent="1">
          <mxGeometry x="820" y="880" width="120" height="60" as="geometry" />
        </mxCell>
        <mxCell id="MKtZNP4OExzvPobhF5sk-19" value="thread" style="rounded=1;whiteSpace=wrap;html=1;" vertex="1" parent="1">
          <mxGeometry x="1070" y="710" width="120" height="60" as="geometry" />
        </mxCell>
        <mxCell id="MKtZNP4OExzvPobhF5sk-20" value="lock/synchronized" style="rounded=1;whiteSpace=wrap;html=1;" vertex="1" parent="1">
          <mxGeometry x="1040" y="780" width="120" height="60" as="geometry" />
        </mxCell>
        <mxCell id="MKtZNP4OExzvPobhF5sk-21" value="volidatile /&amp;nbsp; concurrentmap" style="rounded=1;whiteSpace=wrap;html=1;" vertex="1" parent="1">
          <mxGeometry x="1140" y="780" width="120" height="60" as="geometry" />
        </mxCell>
        <mxCell id="MKtZNP4OExzvPobhF5sk-22" value="多场景" style="rounded=1;whiteSpace=wrap;html=1;" vertex="1" parent="1">
          <mxGeometry x="270" y="795" width="120" height="60" as="geometry" />
        </mxCell>
        <mxCell id="MKtZNP4OExzvPobhF5sk-23" value="抽象" style="rounded=1;whiteSpace=wrap;html=1;" vertex="1" parent="1">
          <mxGeometry x="420" y="770" width="120" height="60" as="geometry" />
        </mxCell>
        <mxCell id="MKtZNP4OExzvPobhF5sk-24" value="规则" style="rounded=1;whiteSpace=wrap;html=1;" vertex="1" parent="1">
          <mxGeometry x="420" y="830" width="120" height="60" as="geometry" />
        </mxCell>
        <mxCell id="MKtZNP4OExzvPobhF5sk-26" value="meta" style="text;html=1;strokeColor=none;fillColor=none;align=center;verticalAlign=middle;whiteSpace=wrap;rounded=0;" vertex="1" parent="1">
          <mxGeometry x="540" y="690" width="60" height="30" as="geometry" />
        </mxCell>
        <mxCell id="MKtZNP4OExzvPobhF5sk-27" value="document对象" style="rounded=1;whiteSpace=wrap;html=1;" vertex="1" parent="1">
          <mxGeometry x="610" y="780" width="120" height="60" as="geometry" />
        </mxCell>
        <mxCell id="MKtZNP4OExzvPobhF5sk-28" value="GenericTokenParser" style="rounded=1;whiteSpace=wrap;html=1;" vertex="1" parent="1">
          <mxGeometry x="740" y="610" width="120" height="60" as="geometry" />
        </mxCell>
        <mxCell id="MKtZNP4OExzvPobhF5sk-29" value="resolverUtil" style="rounded=1;whiteSpace=wrap;html=1;" vertex="1" parent="1">
          <mxGeometry x="880" y="610" width="120" height="60" as="geometry" />
        </mxCell>
        <mxCell id="MKtZNP4OExzvPobhF5sk-30" value="defaultObjectFactory" style="rounded=1;whiteSpace=wrap;html=1;" vertex="1" parent="1">
          <mxGeometry x="1030" y="610" width="120" height="60" as="geometry" />
        </mxCell>
        <mxCell id="MKtZNP4OExzvPobhF5sk-31" value="metaClass" style="rounded=1;whiteSpace=wrap;html=1;" vertex="1" parent="1">
          <mxGeometry x="1190" y="606" width="120" height="60" as="geometry" />
        </mxCell>
        <mxCell id="MKtZNP4OExzvPobhF5sk-32" value="proxy" style="rounded=1;whiteSpace=wrap;html=1;" vertex="1" parent="1">
          <mxGeometry x="1360" y="780" width="120" height="60" as="geometry" />
        </mxCell>
        <mxCell id="MKtZNP4OExzvPobhF5sk-33" value="plugin" style="rounded=1;whiteSpace=wrap;html=1;" vertex="1" parent="1">
          <mxGeometry x="1350" y="610" width="120" height="60" as="geometry" />
        </mxCell>
        <mxCell id="MKtZNP4OExzvPobhF5sk-35" value="invocation" style="rounded=1;whiteSpace=wrap;html=1;" vertex="1" parent="1">
          <mxGeometry x="1290" y="710" width="120" height="60" as="geometry" />
        </mxCell>
        <mxCell id="MKtZNP4OExzvPobhF5sk-36" value="interceptor" style="rounded=1;whiteSpace=wrap;html=1;" vertex="1" parent="1">
          <mxGeometry x="1380" y="710" width="120" height="60" as="geometry" />
        </mxCell>
        <mxCell id="MKtZNP4OExzvPobhF5sk-37" value="类之间组合包装关系、深度、获取到之后处理" style="rounded=1;whiteSpace=wrap;html=1;" vertex="1" parent="1">
          <mxGeometry x="760" y="-10" width="410" height="60" as="geometry" />
        </mxCell>
        <mxCell id="MKtZNP4OExzvPobhF5sk-38" value="metaObject" style="rounded=1;whiteSpace=wrap;html=1;" vertex="1" parent="1">
          <mxGeometry x="1300" y="880" width="120" height="60" as="geometry" />
        </mxCell>
        <mxCell id="MKtZNP4OExzvPobhF5sk-39" value="sqlsource" style="rounded=1;whiteSpace=wrap;html=1;" vertex="1" parent="1">
          <mxGeometry x="1490" y="606" width="120" height="60" as="geometry" />
        </mxCell>
        <mxCell id="MKtZNP4OExzvPobhF5sk-40" value="sqlNode - function" style="rounded=1;whiteSpace=wrap;html=1;" vertex="1" parent="1">
          <mxGeometry x="1500" y="640" width="120" height="60" as="geometry" />
        </mxCell>
      </root>
    </mxGraphModel>
  </diagram>
</mxfile>
